<?xml version="1.0" encoding="UTF-8"?>
<!DOCTYPE svg PUBLIC "-//W3C//DTD SVG 1.1//EN" "http://www.w3.org/Graphics/SVG/1.1/DTD/svg11.dtd">
<!-- Creator: CorelDRAW 2021 (64-Bit) -->
<svg xmlns="http://www.w3.org/2000/svg" xml:space="preserve" width="300mm" height="300mm" version="1.1" style="shape-rendering:geometricPrecision; text-rendering:geometricPrecision; image-rendering:optimizeQuality; fill-rule:evenodd; clip-rule:evenodd"
viewBox="0 0 30000 30000"
 xmlns:xlink="http://www.w3.org/1999/xlink"
 xmlns:xodm="http://www.corel.com/coreldraw/odm/2003">
 <defs>
  <style type="text/css">
   <![CDATA[
    .fil0 {fill:url(#id0)}
    .fil1 {fill:url(#id1)}
   ]]>
  </style>
  <linearGradient id="id0" gradientUnits="userSpaceOnUse" x1="21927.13" y1="23858.84" x2="6122.68" y2="2551.05">
   <stop offset="0" style="stop-opacity:1; stop-color:#0B1A15"/>
   <stop offset="1" style="stop-opacity:1; stop-color:#1B5A3F"/>
  </linearGradient>
  <linearGradient id="id1" gradientUnits="userSpaceOnUse" x1="16529.22" y1="13901.28" x2="12369.9" y2="9583.31">
   <stop offset="0" style="stop-opacity:1; stop-color:#B17B46"/>
   <stop offset="1" style="stop-opacity:1; stop-color:#FFBD61"/>
  </linearGradient>
 </defs>
 <g id="Слой_x0020_1">
  <metadata id="CorelCorpID_0Corel-Layer"/>
  <polygon class="fil0" points="-2.93,2.93 29997.07,2.93 29997.07,30002.93 -2.93,30002.93 "/>
  <path class="fil1" d="M14842.59 10926.09l154.54 -89.23 154.55 89.23 0 4403.92 618.17 -618.18 0 -3428.84 1236.33 713.79 0 1478.72 618.17 -618.17 0 -503.65 319.3 184.35 452.53 -452.53 -771.83 -445.61 0 -1342.78 0 -713.81 -618.17 -356.89 -1236.33 -713.8 -618.17 -356.9 0 178.45 0 356.9 0 178.45 0 1342.78 -154.55 -89.23 -154.54 89.23 0 -1342.78 0 -178.45 0 -356.9 0 -178.45 -618.17 356.9 -1236.34 713.8 -618.18 356.9 0 713.82 0 1342.76 -771.82 445.61 452.52 452.53 319.3 -184.34 0 503.64 618.18 618.17 0 -1478.71 1236.34 -713.8 0 3428.84 618.17 618.18 0 -4403.92zm2163.59 356.9l-1236.33 -713.8 0 -1342.78 1236.33 713.79 0 1342.79zm-2781.76 -713.82l-1236.34 713.82 0 -1342.78 1236.34 -713.8 0 1342.76zm-4762.78 11099.71l-368.88 0 -72.74 170.75 -141.23 0 332.02 -737.78 134.9 0 333.05 737.78 -143.34 0 -73.78 -170.75zm-45.31 -107.5l-139.13 -322.5 -138.07 322.5 277.2 0zm1435.27 278.25l-150.72 -216.06c-6.32,0.69 -15.81,1.05 -28.45,1.05l-166.53 0 0 215.01 -137.01 0 0 -737.78 303.54 0c63.94,0 119.62,10.56 167.04,31.63 47.44,21.07 83.79,51.28 109.09,90.63 25.29,39.35 37.94,86.08 37.94,140.18 0,55.51 -13.53,103.29 -40.57,143.34 -27.06,40.06 -65.88,69.92 -116.47,89.59l169.68 242.41 -147.54 0zm-3.17 -475.34c0,-47.07 -15.46,-83.26 -46.36,-108.55 -30.92,-25.29 -76.25,-37.95 -135.97,-37.95l-160.2 0 0 294.06 160.2 0c59.72,0 105.05,-12.82 135.97,-38.48 30.9,-25.64 46.36,-62 46.36,-109.08zm1228.71 485.87c-74.48,0 -141.76,-16.33 -201.83,-49 -60.08,-32.67 -107.15,-77.82 -141.24,-135.43 -34.07,-57.62 -51.11,-122.61 -51.11,-194.98 0,-72.38 17.22,-137.37 51.64,-194.99 34.43,-57.62 81.69,-102.76 141.76,-135.43 60.08,-32.67 127.35,-49.01 201.83,-49.01 60.42,0 115.58,10.53 165.47,31.62 49.9,21.08 92.04,51.64 126.48,91.7l-88.54 83.26c-53.4,-57.62 -119.1,-86.43 -197.09,-86.43 -50.59,0 -95.9,11.06 -135.96,33.2 -40.04,22.13 -71.31,52.88 -93.8,92.22 -22.47,39.35 -33.72,83.97 -33.72,133.86 0,49.88 11.25,94.49 33.72,133.84 22.49,39.35 53.76,70.09 93.8,92.22 40.06,22.14 85.37,33.2 135.96,33.2 77.99,0 143.69,-29.16 197.09,-87.47l88.54 84.32c-34.44,40.04 -76.76,70.6 -127,91.69 -50.24,21.08 -105.57,31.61 -166,31.61zm1676.65 -748.31l0 737.78 -137.01 0 0 -316.18 -381.54 0 0 316.18 -137.01 0 0 -737.78 137.01 0 0 304.6 381.54 0 0 -304.6 137.01 0zm794.48 0l137.01 0 0 737.78 -137.01 0 0 -737.78zm1082.19 115.94l-244.52 0 0 -115.94 626.05 0 0 115.94 -244.51 0 0 621.84 -137.02 0 0 -621.84zm1634.49 506.96l0 114.88 -553.32 0 0 -737.78 538.56 0 0 114.89 -401.55 0 0 191.82 356.23 0 0 112.78 -356.23 0 0 203.41 416.31 0zm1087.48 125.41c-74.48,0 -141.77,-16.33 -201.83,-49 -60.09,-32.67 -107.16,-77.82 -141.24,-135.43 -34.07,-57.62 -51.11,-122.61 -51.11,-194.98 0,-72.38 17.21,-137.37 51.64,-194.99 34.42,-57.62 81.68,-102.76 141.75,-135.43 60.08,-32.67 127.36,-49.01 201.84,-49.01 60.42,0 115.58,10.53 165.46,31.62 49.9,21.08 92.05,51.64 126.49,91.7l-88.54 83.26c-53.4,-57.62 -119.1,-86.43 -197.09,-86.43 -50.59,0 -95.91,11.06 -135.96,33.2 -40.04,22.13 -71.31,52.88 -93.8,92.22 -22.48,39.35 -33.72,83.97 -33.72,133.86 0,49.88 11.24,94.49 33.72,133.84 22.49,39.35 53.76,70.09 93.8,92.22 40.05,22.14 85.37,33.2 135.96,33.2 77.99,0 143.69,-29.16 197.09,-87.47l88.54 84.32c-34.44,40.04 -76.76,70.6 -127,91.69 -50.24,21.08 -105.58,31.61 -166,31.61zm1162.29 -632.37l-244.52 0 0 -115.94 626.05 0 0 115.94 -244.51 0 0 621.84 -137.02 0 0 -621.84zm1302.49 632.37c-56.92,0 -111.9,-8.07 -164.94,-24.24 -53.05,-16.15 -95.04,-37.59 -125.96,-64.28l47.43 -106.46c30.22,23.89 67.29,43.4 111.2,58.5 43.92,15.11 88,22.66 132.27,22.66 54.8,0 95.73,-8.79 122.78,-26.35 27.06,-17.57 40.57,-40.75 40.57,-69.56 0,-21.08 -7.54,-38.47 -22.65,-52.17 -15.1,-13.71 -34.26,-24.42 -57.44,-32.14 -23.18,-7.74 -54.81,-16.52 -94.86,-26.35 -56.21,-13.35 -101.7,-26.7 -136.48,-40.06 -34.78,-13.35 -64.65,-34.25 -89.59,-62.7 -24.95,-28.46 -37.41,-66.94 -37.41,-115.42 0,-40.75 11.06,-77.81 33.2,-111.19 22.13,-33.36 55.5,-59.89 100.12,-79.56 44.62,-19.68 99.25,-29.52 163.89,-29.52 44.96,0 89.23,5.63 132.79,16.87 43.57,11.23 81.16,27.4 112.78,48.47l-43.22 106.46c-32.32,-18.98 -66.03,-33.38 -101.17,-43.22 -35.13,-9.83 -69.22,-14.75 -102.24,-14.75 -54.1,0 -94.32,9.13 -120.67,27.41 -26.35,18.25 -39.52,42.5 -39.52,72.71 0,21.09 7.55,38.3 22.65,51.65 15.11,13.35 34.26,23.89 57.44,31.61 23.19,7.74 54.81,16.52 94.87,26.35 54.8,12.64 99.76,25.82 134.9,39.52 35.13,13.71 65.16,34.61 90.11,62.71 24.94,28.12 37.42,66.05 37.42,113.83 0,40.76 -11.07,77.65 -33.2,110.67 -22.14,33.03 -55.69,59.38 -100.66,79.05 -44.97,19.67 -99.76,29.5 -164.41,29.5zm-14320.15 -2199.16l1349.79 -2880.66 395.06 0 1345.68 2880.66 -584.36 0 -288.06 -625.51 -1341.57 0 -288.07 625.51 -588.47 0zm1106.99 -1127.57l880.66 0 -440.33 -954.74 -440.33 954.74zm2325.11 -1753.09l1218.11 0c104.25,0 221.53,10.97 351.85,32.92 130.31,21.95 252.4,66.53 366.25,133.75 113.86,67.21 209.19,163.23 286.01,288.06 76.82,124.83 115.23,290.13 115.23,495.89 0,211.25 -48.01,390.26 -144.03,537.03 -96.03,146.78 -231.83,254.46 -407.41,323.05l757.2 1069.96 -674.9 0 -699.59 -979.42 -592.59 0 0 979.42 -576.13 0 0 -2880.66zm1205.76 1366.26c115.23,0 208.51,-9.61 279.84,-28.81 71.33,-19.21 126.88,-47.33 166.66,-84.36 39.78,-37.04 67.22,-80.94 82.31,-131.69 15.09,-50.76 22.63,-107.68 22.63,-170.78 0,-63.1 -7.54,-119.34 -22.63,-168.73 -15.09,-49.38 -42.53,-92.59 -82.31,-129.63 -39.78,-37.03 -95.33,-65.15 -166.66,-84.36 -71.33,-19.2 -164.61,-28.81 -279.84,-28.81l-629.63 0 0 827.17 629.63 0zm2366.26 -1366.26l0 1172.84 1362.14 0 0 -1172.84 576.13 0 0 2880.66 -576.13 0 0 -1172.84 -1362.14 0 0 1172.84 -576.13 0 0 -2880.66 576.13 0zm2707.82 2880.66l0 -2880.66 576.13 0 0 2880.66 -576.13 0zm1045.27 -2880.66l621.4 0 934.15 2024.69 934.16 -2024.69 621.4 0 -1345.68 2880.66 -415.64 0 -1349.79 -2880.66zm3152.27 2880.66l1349.79 -2880.66 395.06 0 1345.68 2880.66 -584.36 0 -288.06 -625.51 -1341.57 0 -288.07 625.51 -588.47 0zm1106.99 -1127.57l880.66 0 -440.33 -954.74 -440.33 954.74z"/>
 </g>
</svg>
